g Mesh1
# Vertex Positions: 40
v -31 0 30
v -31 0 -28
v 31 0 -28
v 31 0 30
v -31.99999 -1 31.00002
v -31.99999 0 31.00002
v 32.00002 0 31.00002
v 32.00002 -1 31.00002
v 32.00002 0 -29
v 32.00002 -1 -29
v -31.99999 -1 -29
v -31.99999 0 -29
v -31 5 30
v -31 5 -28
v -32 5 31.00001
v -31 5 31.00001
v -31 0 31.00001
v -32 5 -29
v -31 0 -29
v -31 5 -29
v 31 5 -28
v 31 5 30
v 31 0 31.00001
v 31 5 31.00001
v 32 5 31.00001
v 32 0 31.00001
v 32 5 -29
v 32 0 -29
v 31 5 -29
v 31 0 -29
v -31.00002 0 -28
v -31.00002 5 -28
v -31.00002 5 -29
v -31.00002 0 -29
v -31.00002 0 31
v -31.00002 5 31
v 31 5 31
v 31 0 31
v -31.00002 5 30
v -31.00002 0 30
# Vertex UVs: 62
vt -14.5 16.00005
vt 14.50001 15.99997
vt 14.5 -15.00004
vt -14.50001 -14.99996
vt -15.5 -0.4999996
vt -15.49999 1.834705E-07
vt 16.50001 -4.721805E-07
vt 16.50001 -0.5000002
vt -15.00001 -0.5
vt -15.00001 -2.505258E-07
vt 15 5.308539E-08
vt 15 -0.4999996
vt -14 -0.4999996
vt -14 1.490116E-07
vt 16.00001 -1.490116E-07
vt 16.00001 -0.5
vt -15.50001 -0.5000002
vt -15.50001 -3.473833E-07
vt 16.49999 3.082677E-07
vt 16.49999 -0.4999996
vt -15.50002 -14
vt -15.49996 16.00001
vt 16.50005 16.00002
vt 16.49999 -14
vt -16 -5.414082E-08
vt -16 2.5
vt 13 2.5
vt 13 2.627571E-07
vt -14 2.5
vt -13.5 2.5
vt -13.5 1.788139E-07
vt -12.5 1.490116E-07
vt -12.5 2.5
vt 17.5 2.499999
vt 17.50001 -1.192093E-07
vt 14.5 2.086163E-07
vt 14.5 2.5
vt 15 2.5
vt -16.50001 15
vt 13.5 15
vt 13.5 14.5
vt -16.50001 14.5
vt -12 1.445413E-07
vt -12 2.5
vt 17 2.499999
vt 17 -1.147389E-07
vt -16.50001 -5.960464E-08
vt -16.5 2.5
vt 13.5 2.5
vt 13.5 2.682209E-07
vt -25.5 4.389929E-07
vt -25.50001 2.5
vt 5.499994 2.5
vt 5.5 -5.960464E-08
vt -4.5 2.980232E-08
vt -4.5 2.5
vt 26.5 2.5
vt 26.5 5.283999E-07
vt 1.999999 26.5
vt 2.499999 26.5
vt 2.5 -4.5
vt 2 -4.5
# Vertex Normals: 6
vn 0 1 0
vn 0 0 1
vn 1 0 0
vn -1 0 0
vn 0 0 -1
vn 0 -1 0
# Faces: 22
f 4/4/1 3/3/1 2/2/1 1/1/1 
f 8/8/2 7/7/2 6/6/2 5/5/2 
f 10/12/3 9/11/3 7/10/3 8/9/3 
f 5/16/4 6/15/4 12/14/4 11/13/4 
f 11/20/5 12/19/5 9/18/5 10/17/5 
f 10/24/6 8/23/6 5/22/6 11/21/6 
f 2/28/3 14/27/3 13/26/3 1/25/3 
f 17/31/2 16/30/2 15/29/2 6/14/2 
f 6/35/4 15/34/4 18/33/4 12/32/4 
f 12/11/5 18/38/5 20/37/5 19/36/5 
f 16/42/1 20/41/1 18/40/1 15/39/1 
f 4/46/4 22/45/4 21/44/4 3/43/4 
f 26/31/2 25/30/2 24/29/2 23/14/2 
f 28/50/3 27/49/3 25/48/3 26/47/3 
f 30/11/5 29/38/5 27/37/5 28/36/5 
f 25/42/1 27/41/1 29/40/1 24/39/1 
f 3/54/2 21/53/2 32/52/2 31/51/2 
f 34/58/5 33/57/5 29/56/5 30/55/5 
f 21/62/1 29/61/1 33/60/1 32/59/1 
f 38/54/2 37/53/2 36/52/2 35/51/2 
f 40/58/5 39/57/5 22/56/5 4/55/5 
f 37/62/1 22/61/1 39/60/1 36/59/1 


